<svg xmlns="http://www.w3.org/2000/svg" fill="none" viewBox="0 0 168 34">
  <path
    fill="#001430"
    d="M43.178 29.004c.148.295.222.663.222 1.032 0 .957-.74 1.767-1.555 1.767-.296 0-.593-.073-.889-.294l2.222-2.505Zm-3.629 4.2.593-.664c.518.442 1.11.59 1.777.59.815 0 1.555-.295 2.148-.958a3.2 3.2 0 0 0 .814-2.136c0-.81-.222-1.547-.74-2.137l.814-.957h-.962l-.445.442c-.518-.368-1.11-.516-1.703-.516-.889 0-1.703.442-2.296 1.105-.444.59-.666 1.252-.666 2.063 0 .736.222 1.473.74 1.989l-1.037 1.178h.963Zm.963-2.21a2.03 2.03 0 0 1-.222-.958c0-1.032.74-1.768 1.555-1.768.296 0 .518.073.815.294l-2.148 2.431ZM52.657 28.194c.74 0 1.185.221 1.185.81 0 .516-.37.81-1.11.81h-.297v-1.62h.222Zm-1.63 4.788h1.334V30.7h.222l1.555 2.283h1.555l-1.777-2.504c.74-.295 1.11-.884 1.11-1.62 0-.517-.221-.959-.666-1.327-.518-.368-1.11-.442-1.851-.442h-1.481v5.893ZM61.544 27.09h3.629v1.178H62.95v1.105h1.925v1.178h-1.925v1.179h2.296v1.252h-3.629l-.074-5.893ZM72.949 31.95c.518 0 .814-.22.814-.588 0-.442-.37-.59-.962-.958l-.445-.221c-.74-.442-1.185-.958-1.185-1.694 0-.958.741-1.62 1.926-1.62.444 0 .963.073 1.481.294v1.4c-.666-.369-1.11-.516-1.481-.516-.444 0-.667.22-.667.442 0 .22.148.368.445.515l.666.369c.815.442 1.481.884 1.481 1.841 0 1.105-.814 1.915-2.147 1.915-.445 0-.963-.073-1.555-.294l-.075-1.547c.667.442 1.185.663 1.704.663ZM82.798 30.33c0 1.032.37 1.547 1.185 1.547.74 0 1.185-.442 1.185-1.4V27.09h1.259v3.389c0 1.767-.963 2.651-2.444 2.651-1.481 0-2.444-.957-2.444-2.651v-3.389h1.333l-.074 3.241ZM92.944 26.868h.148l3.629 3.389v-3.241h1.258v6.187h-.148l-3.702-3.388v3.24h-1.26l.075-6.187ZM106.052 31.73V28.34h.296c1.259 0 1.925.663 1.925 1.695 0 1.03-.666 1.694-1.925 1.694h-.296Zm-1.407 1.252h1.555c.814 0 1.407-.074 2.073-.442.963-.515 1.481-1.4 1.481-2.504 0-1.768-1.259-2.947-3.48-2.947h-1.555l-.074 5.893ZM117.382 31.95c.519 0 .815-.22.815-.588 0-.442-.37-.59-.963-.958l-.444-.221c-.741-.442-1.185-.958-1.185-1.694 0-.958.741-1.62 1.925-1.62.445 0 .963.073 1.482.294v1.4c-.667-.369-1.111-.516-1.482-.516-.444 0-.666.22-.666.442 0 .22.148.368.444.515l.667.369c.814.442 1.481.884 1.481 1.841 0 1.105-.815 1.915-2.148 1.915a4.41 4.41 0 0 1-1.555-.294l-.074-1.547c.667.442 1.185.663 1.703.663ZM127.158 29.446v-1.4h.444c.593 0 .889.222.889.664 0 .442-.296.663-.889.663l-.444.073Zm-1.259 3.536h1.555c1.629 0 2.444-.59 2.444-1.694 0-.737-.445-1.252-1.185-1.4.666-.22.963-.663.963-1.252 0-.957-.667-1.473-2.074-1.473h-1.777l.074 5.82Zm1.259-1.031v-1.473h.592c.593 0 .889.294.889.736 0 .516-.296.737-.889.737h-.592ZM137.822 28.194c.74 0 1.185.221 1.185.81 0 .516-.371.81-1.111.81h-.296v-1.62h.222Zm-1.555 4.788h1.333V30.7h.222l1.555 2.283h1.555l-1.777-2.504c.74-.295 1.111-.884 1.111-1.62 0-.517-.223-.959-.667-1.327-.518-.368-1.111-.442-1.851-.442h-1.481v5.893ZM147.672 30.036c0-1.032.666-1.842 1.555-1.842.889 0 1.555.737 1.555 1.842 0 1.03-.666 1.841-1.555 1.841-.889 0-1.555-.81-1.555-1.841Zm-1.407 0c0 .884.296 1.62.888 2.21.593.589 1.333.883 2.074.883.963 0 1.777-.442 2.37-1.178.444-.516.592-1.179.592-1.915 0-.884-.296-1.62-.889-2.21a2.973 2.973 0 0 0-2.147-.884c-.815 0-1.555.295-2.074.884-.518.59-.814 1.326-.814 2.21ZM158.558 26.868h.148l3.629 3.389v-3.241h1.259v6.187h-.148l-3.703-3.388v3.24h-1.259l.074-6.187Z"
  />
  <path
    fill="#29C26E"
    d="M39.993 2.855c-.074 0-.074.074-.074.147 0 .074 0 5.451.963 13.333.074.22.296.663.815.663.592 0 .814-.442.814-.663.89-7.882.963-13.333.963-13.333 0-.073 0-.147-.074-.147-.074-.074-1.703-.884-3.407 0ZM121.752 6.39c-.963 7.882-1.037 13.26-1.037 13.333 0 .074 0 .148.074.148s1.703.884 3.406 0c.075 0 .075-.074.075-.148 0-.073 0-5.45-.963-13.332-.074-.221-.296-.663-.815-.663-.518.073-.74.442-.74.663Z"
  />
  <path
    fill="#2980C9"
    d="M70.134 13.978c4.148-1.473 6.591-2.578 9.48-3.904a150.76 150.76 0 0 1 8.368-3.61l.963-.368A77.33 77.33 0 0 1 113.68.866c8.59-.368 17.477.737 26.29 3.241 14.959 4.273 24.809 11.344 24.957 11.344.222.147.296.515.148.736-.148.221-.519.295-.741.148-.074-.074-9.849-6.114-24.735-9.502-8.738-1.99-17.477-2.652-25.993-2.063a86.47 86.47 0 0 0-19.255 3.757C90.204 10 87.76 11.105 84.87 12.43c-1.629.736-3.332 1.547-5.554 2.43a81.868 81.868 0 0 1-27.549 6.851c-8.664.59-17.477-.147-26.364-2.21C10.297 16.04.374 9.78.225 9.705.003 9.558-.07 9.19.077 8.97c.148-.221.518-.368.74-.221.075.073 9.924 5.377 24.81 8.029 10.515 1.915 26.734 2.946 44.507-2.8Z"
  />
</svg>
